# Max2Obj Version 4.0 Mar 10th, 2001
#
# object proped_up_sheet to come ...
#
v  76.669380 -272.866547 202.426636
v  48.548363 -269.829376 201.472504
v  20.323822 -268.774048 199.744476
v  -7.969955 -269.044067 197.498871
v  -36.012314 -264.501160 197.132751
v  -64.087029 -260.577667 196.524719
v  -92.283173 -258.978607 195.009033
v  -120.683807 -261.294373 191.964569
v  -149.173874 -265.322113 188.251587
v  74.732262 -282.002167 229.142059
v  46.577873 -279.603790 227.938477
v  18.332638 -278.944641 226.055725
v  -9.961136 -279.214661 223.810150
v  -38.012035 -274.835205 223.380188
v  -66.099274 -271.151398 222.678558
v  -94.282730 -269.309692 221.257629
v  -122.547043 -269.015564 219.232330
v  -150.850067 -269.462769 216.917542
v  72.771568 -291.588989 255.681290
v  44.567368 -290.144409 254.105255
v  16.316330 -289.596252 252.179169
v  -11.862644 -287.668610 250.791779
v  -39.960487 -284.187866 250.010864
v  -68.103821 -281.577972 248.889893
v  -96.278900 -279.575775 247.531601
v  -124.453987 -277.573578 246.173325
v  -152.629059 -275.571381 244.815033
v  70.780388 -301.759613 281.992554
v  42.531937 -301.161987 280.085785
v  14.247940 -301.244843 277.913269
v  -13.818220 -297.157562 277.369232
v  -41.919930 -293.750793 276.559418
v  -70.095009 -291.748596 275.201141
v  -98.270088 -289.746368 273.842865
v  -126.445168 -287.744171 272.484589
v  -154.620239 -285.741974 271.126312
v  68.789207 -311.930206 308.303833
v  40.584999 -310.485626 306.727783
v  12.365677 -309.330383 305.038757
v  -15.765160 -306.481201 304.011230
v  -44.020966 -306.024414 302.049469
v  -72.346367 -306.899872 299.567444
v  -100.371124 -302.019989 299.332886
v  -128.436340 -297.914764 298.795868
v  -156.611420 -295.912567 297.437561
v  66.798027 -322.100800 334.615082
v  38.622948 -320.098602 333.256805
v  10.447868 -318.096405 331.898529
v  -17.727213 -316.094177 330.540253
v  -46.162468 -319.072662 327.237000
v  -74.697029 -323.952148 323.191406
v  -102.512627 -315.068268 324.520447
v  -130.519287 -309.842041 324.421143
v  -158.833755 -310.508057 322.020905
v  64.578781 -336.637329 359.221436
v  36.541222 -332.002472 358.891235
v  8.456684 -328.266998 358.209778
v  -19.718395 -326.264801 356.851501
v  -48.153652 -329.243256 353.548279
v  -76.688217 -334.122772 349.502655
v  -104.503815 -325.238861 350.831696
v  -132.649857 -322.680878 349.690460
v  -161.168060 -327.247314 345.767090
v  62.249039 -353.289032 383.001831
v  34.412514 -344.805725 384.174438
v  6.465504 -338.437592 384.521057
v  -21.709578 -336.435394 383.162781
v  -50.144833 -339.413879 379.859528
v  -78.679398 -344.293365 375.813934
v  -106.494995 -335.409454 377.142975
v  -134.641037 -332.851471 376.001709
v  -163.159241 -337.417908 372.078369
v  60.257858 -363.459625 409.313110
v  32.421333 -354.976318 410.485718
v  4.474319 -348.608215 410.832336
v  -23.700760 -346.605988 409.474060
v  -52.136017 -349.584473 406.170776
v  -80.670578 -354.463959 402.125183
v  -108.486176 -345.580078 403.454224
v  -136.632233 -343.022095 402.312988
v  -165.150421 -347.588501 398.389648
# 81 vertices

vt  0.000000 0.000000 0.000000
vt  0.125000 0.000000 0.000000
vt  0.250000 0.000000 0.000000
vt  0.375000 0.000000 0.000000
vt  0.500000 0.000000 0.000000
vt  0.625000 0.000000 0.000000
vt  0.750000 0.000000 0.000000
vt  0.875000 0.000000 0.000000
vt  1.000000 0.000000 0.000000
vt  0.000000 0.000000 0.000000
vt  0.125000 0.000000 0.000000
vt  0.250000 0.000000 0.000000
vt  0.375000 0.000000 0.000000
vt  0.500000 0.000000 0.000000
vt  0.625000 0.000000 0.000000
vt  0.750000 0.000000 0.000000
vt  0.875000 0.000000 0.000000
vt  1.000000 0.000000 0.000000
vt  0.000000 0.000000 0.000000
vt  0.125000 0.000000 0.000000
vt  0.250000 0.000000 0.000000
vt  0.375000 0.000000 0.000000
vt  0.500000 0.000000 0.000000
vt  0.625000 0.000000 0.000000
vt  0.750000 0.000000 0.000000
vt  0.875000 0.000000 0.000000
vt  1.000000 0.000000 0.000000
vt  0.000000 0.125000 0.000000
vt  0.125000 0.125000 0.000000
vt  0.250000 0.125000 0.000000
vt  0.375000 0.125000 0.000000
vt  0.500000 0.125000 0.000000
vt  0.625000 0.125000 0.000000
vt  0.750000 0.125000 0.000000
vt  0.875000 0.125000 0.000000
vt  1.000000 0.125000 0.000000
vt  0.000000 0.250000 0.000000
vt  0.125000 0.250000 0.000000
vt  0.250000 0.250000 0.000000
vt  0.375000 0.250000 0.000000
vt  0.500000 0.250000 0.000000
vt  0.625000 0.250000 0.000000
vt  0.750000 0.250000 0.000000
vt  0.875000 0.250000 0.000000
vt  1.000000 0.250000 0.000000
vt  0.000000 0.375000 0.000000
vt  0.125000 0.375000 0.000000
vt  0.250000 0.375000 0.000000
vt  0.375000 0.375000 0.000000
vt  0.500000 0.375000 0.000000
vt  0.625000 0.375000 0.000000
vt  0.750000 0.375000 0.000000
vt  0.875000 0.375000 0.000000
vt  1.000000 0.375000 0.000000
vt  0.000000 0.500000 0.000000
vt  0.125000 0.500000 0.000000
vt  0.250000 0.500000 0.000000
vt  0.375000 0.500000 0.000000
vt  0.500000 0.500000 0.000000
vt  0.625000 0.500000 0.000000
vt  0.750000 0.500000 0.000000
vt  0.875000 0.500000 0.000000
vt  1.000000 0.500000 0.000000
vt  0.000000 0.625000 0.000000
vt  0.125000 0.625000 0.000000
vt  0.250000 0.625000 0.000000
vt  0.375000 0.625000 0.000000
vt  0.500000 0.625000 0.000000
vt  0.625000 0.625000 0.000000
vt  0.750000 0.625000 0.000000
vt  0.875000 0.625000 0.000000
vt  1.000000 0.625000 0.000000
vt  0.000000 0.750000 0.000000
vt  0.125000 0.750000 0.000000
vt  0.250000 0.750000 0.000000
vt  0.375000 0.750000 0.000000
vt  0.500000 0.750000 0.000000
vt  0.625000 0.750000 0.000000
vt  0.750000 0.750000 0.000000
vt  0.875000 0.750000 0.000000
vt  1.000000 0.750000 0.000000
vt  0.000000 0.875000 0.000000
vt  0.125000 0.875000 0.000000
vt  0.250000 0.875000 0.000000
vt  0.375000 0.875000 0.000000
vt  0.500000 0.875000 0.000000
vt  0.625000 0.875000 0.000000
vt  0.750000 0.875000 0.000000
vt  0.875000 0.875000 0.000000
vt  1.000000 0.875000 0.000000
vt  0.000000 1.000000 0.000000
vt  0.125000 1.000000 0.000000
vt  0.250000 1.000000 0.000000
vt  0.375000 1.000000 0.000000
vt  0.500000 1.000000 0.000000
vt  0.625000 1.000000 0.000000
vt  0.750000 1.000000 0.000000
vt  0.875000 1.000000 0.000000
vt  1.000000 1.000000 0.000000
# 99 texture vertices

vn  0.043864 0.530260 0.191771
vn  0.026758 0.528555 0.199472
vn  -0.006950 0.527672 0.203445
vn  0.029407 0.525749 0.206394
vn  0.073383 0.519395 0.211468
vn  0.044463 0.522020 0.213057
vn  -0.008151 0.531351 0.193585
vn  -0.057720 0.547060 0.131413
vn  -0.088023 0.553650 0.074825
vn  0.031721 0.530248 0.194182
vn  0.018892 0.527374 0.203459
vn  -0.004131 0.528268 0.201969
vn  0.027342 0.531839 0.190461
vn  0.068647 0.523542 0.202649
vn  0.044382 0.522538 0.211801
vn  0.011493 0.527560 0.203528
vn  -0.014326 0.541652 0.162122
vn  -0.037104 0.552144 0.116773
vn  0.011126 0.527772 0.203000
vn  0.005965 0.522816 0.215645
vn  0.016146 0.521293 0.218789
vn  0.037786 0.532259 0.187479
vn  0.051657 0.529695 0.191390
vn  0.036872 0.525517 0.205786
vn  0.026955 0.525713 0.206820
vn  0.023807 0.530960 0.193367
vn  0.016594 0.537126 0.176341
vn  0.002263 0.529100 0.199809
vn  -0.003895 0.529613 0.198419
vn  0.026225 0.528048 0.200880
vn  0.051306 0.525030 0.203928
vn  0.033399 0.516728 0.227492
vn  0.033558 0.508229 0.245871
vn  0.031904 0.519465 0.221391
vn  0.027488 0.526209 0.205486
vn  0.027488 0.526209 0.205486
vn  0.018740 0.527849 0.202237
vn  0.013500 0.532328 0.190579
vn  0.024116 0.537198 0.175249
vn  0.014818 0.530260 0.196163
vn  -0.025919 0.505215 0.252907
vn  0.037394 0.476760 0.301956
vn  0.071342 0.497332 0.259706
vn  0.034948 0.513259 0.234988
vn  0.024079 0.507457 0.248562
vn  0.039073 0.512497 0.235998
vn  0.029960 0.522502 0.214404
vn  0.026117 0.530837 0.193405
vn  -0.022390 0.530593 0.194538
vn  -0.089717 0.515242 0.215295
vn  0.032413 0.500511 0.261368
vn  0.112078 0.494181 0.251196
vn  0.016004 0.501934 0.260157
vn  -0.022297 0.482531 0.294181
vn  0.095488 0.475196 0.291455
vn  0.070440 0.502570 0.249673
vn  0.041050 0.523370 0.210415
vn  -0.025268 0.527648 0.202050
vn  -0.096958 0.522153 0.194500
vn  0.027488 0.526209 0.205486
vn  0.105006 0.515644 0.207269
vn  -0.030119 0.519525 0.221501
vn  -0.093677 0.504058 0.238800
vn  0.155822 0.474654 0.265139
vn  0.127920 0.495036 0.241767
vn  0.066258 0.519573 0.213375
vn  -0.025268 0.527648 0.202050
vn  -0.096958 0.522153 0.194500
vn  0.027488 0.526209 0.205486
vn  0.105006 0.515644 0.207269
vn  -0.035534 0.527392 0.201174
vn  -0.109825 0.520238 0.192786
vn  0.161469 0.501357 0.206019
vn  0.140520 0.507333 0.206743
vn  0.073674 0.521142 0.207023
vn  -0.025268 0.527648 0.202050
vn  -0.096958 0.522153 0.194500
vn  0.027488 0.526209 0.205486
vn  0.105006 0.515644 0.207269
vn  -0.035534 0.527392 0.201174
vn  -0.109825 0.520238 0.192786
# 81 vertex normals

g proped_up_sheet
f 10/28/10 1/19/1 11/29/11
f 2/20/2 11/29/11 1/19/1
f 11/29/11 2/20/2 12/30/12
f 3/21/3 12/30/12 2/20/2
f 12/30/12 3/21/3 13/31/13
f 4/22/4 13/31/13 3/21/3
f 13/31/13 4/22/4 14/32/14
f 5/23/5 14/32/14 4/22/4
f 14/32/14 5/23/5 15/33/15
f 6/24/6 15/33/15 5/23/5
f 15/33/15 6/24/6 16/34/16
f 7/25/7 16/34/16 6/24/6
f 16/34/16 7/25/7 17/35/17
f 8/26/8 17/35/17 7/25/7
f 17/35/17 8/26/8 18/36/18
f 9/27/9 18/36/18 8/26/8
f 19/37/19 10/28/10 20/38/20
f 11/29/11 20/38/20 10/28/10
f 20/38/20 11/29/11 21/39/21
f 12/30/12 21/39/21 11/29/11
f 21/39/21 12/30/12 22/40/22
f 13/31/13 22/40/22 12/30/12
f 22/40/22 13/31/13 23/41/23
f 14/32/14 23/41/23 13/31/13
f 23/41/23 14/32/14 24/42/24
f 15/33/15 24/42/24 14/32/14
f 24/42/24 15/33/15 25/43/25
f 16/34/16 25/43/25 15/33/15
f 25/43/25 16/34/16 26/44/26
f 17/35/17 26/44/26 16/34/16
f 26/44/26 17/35/17 27/45/27
f 18/36/18 27/45/27 17/35/17
f 28/46/28 19/37/19 29/47/29
f 20/38/20 29/47/29 19/37/19
f 29/47/29 20/38/20 30/48/30
f 21/39/21 30/48/30 20/38/20
f 30/48/30 21/39/21 31/49/31
f 22/40/22 31/49/31 21/39/21
f 31/49/31 22/40/22 32/50/32
f 23/41/23 32/50/32 22/40/22
f 32/50/32 23/41/23 33/51/33
f 24/42/24 33/51/33 23/41/23
f 33/51/33 24/42/24 34/52/34
f 25/43/25 34/52/34 24/42/24
f 34/52/34 25/43/25 35/53/35
f 26/44/26 35/53/35 25/43/25
f 35/53/35 26/44/26 36/54/36
f 27/45/27 36/54/36 26/44/26
f 37/55/37 28/46/28 38/56/38
f 29/47/29 38/56/38 28/46/28
f 38/56/38 29/47/29 39/57/39
f 30/48/30 39/57/39 29/47/29
f 39/57/39 30/48/30 40/58/40
f 31/49/31 40/58/40 30/48/30
f 40/58/40 31/49/31 41/59/41
f 32/50/32 41/59/41 31/49/31
f 41/59/41 32/50/32 42/60/42
f 33/51/33 42/60/42 32/50/32
f 42/60/42 33/51/33 43/61/43
f 34/52/34 43/61/43 33/51/33
f 43/61/43 34/52/34 44/62/44
f 35/53/35 44/62/44 34/52/34
f 44/62/44 35/53/35 45/63/45
f 36/54/36 45/63/45 35/53/35
f 46/64/46 37/55/37 47/65/47
f 38/56/38 47/65/47 37/55/37
f 47/65/47 38/56/38 48/66/48
f 39/57/39 48/66/48 38/56/38
f 48/66/48 39/57/39 49/67/49
f 40/58/40 49/67/49 39/57/39
f 49/67/49 40/58/40 50/68/50
f 41/59/41 50/68/50 40/58/40
f 50/68/50 41/59/41 51/69/51
f 42/60/42 51/69/51 41/59/41
f 51/69/51 42/60/42 52/70/52
f 43/61/43 52/70/52 42/60/42
f 52/70/52 43/61/43 53/71/53
f 44/62/44 53/71/53 43/61/43
f 53/71/53 44/62/44 54/72/54
f 45/63/45 54/72/54 44/62/44
f 55/73/55 46/64/46 56/74/56
f 47/65/47 56/74/56 46/64/46
f 56/74/56 47/65/47 57/75/57
f 48/66/48 57/75/57 47/65/47
f 57/75/57 48/66/48 58/76/58
f 49/67/49 58/76/58 48/66/48
f 58/76/58 49/67/49 59/77/59
f 50/68/50 59/77/59 49/67/49
f 59/77/59 50/68/50 60/78/60
f 51/69/51 60/78/60 50/68/50
f 60/78/60 51/69/51 61/79/61
f 52/70/52 61/79/61 51/69/51
f 61/79/61 52/70/52 62/80/62
f 53/71/53 62/80/62 52/70/52
f 62/80/62 53/71/53 63/81/63
f 54/72/54 63/81/63 53/71/53
f 64/82/64 55/73/55 65/83/65
f 56/74/56 65/83/65 55/73/55
f 65/83/65 56/74/56 66/84/66
f 57/75/57 66/84/66 56/74/56
f 66/84/66 57/75/57 67/85/67
f 58/76/58 67/85/67 57/75/57
f 67/85/67 58/76/58 68/86/68
f 59/77/59 68/86/68 58/76/58
f 68/86/68 59/77/59 69/87/69
f 60/78/60 69/87/69 59/77/59
f 69/87/69 60/78/60 70/88/70
f 61/79/61 70/88/70 60/78/60
f 70/88/70 61/79/61 71/89/71
f 62/80/62 71/89/71 61/79/61
f 71/89/71 62/80/62 72/90/72
f 63/81/63 72/90/72 62/80/62
f 73/91/73 64/82/64 74/92/74
f 65/83/65 74/92/74 64/82/64
f 74/92/74 65/83/65 75/93/75
f 66/84/66 75/93/75 65/83/65
f 75/93/75 66/84/66 76/94/76
f 67/85/67 76/94/76 66/84/66
f 76/94/76 67/85/67 77/95/77
f 68/86/68 77/95/77 67/85/67
f 77/95/77 68/86/68 78/96/78
f 69/87/69 78/96/78 68/86/68
f 78/96/78 69/87/69 79/97/79
f 70/88/70 79/97/79 69/87/69
f 79/97/79 70/88/70 80/98/80
f 71/89/71 80/98/80 70/88/70
f 80/98/80 71/89/71 81/99/81
f 72/90/72 81/99/81 71/89/71
# 128 faces

g
