# Max2Obj Version 4.0 Mar 10th, 2001
#
# object radioSpindles to come ...
#
v  -30.647331 -240.655869 238.129913
v  -38.014343 -242.498871 245.678955
v  -40.510864 -245.129837 255.753815
v  -37.467953 -247.843811 265.654938
v  -29.700958 -249.913559 272.729370
v  -19.291039 -250.784515 275.081451
v  -9.027525 -250.223297 272.081024
v  -1.660513 -248.380295 264.531982
v  0.836010 -245.749329 254.457138
v  -2.206892 -243.035355 244.556000
v  -9.973883 -240.965607 237.481583
v  -20.383801 -240.094650 235.129471
v  -19.837425 -245.439575 255.105469
v  -30.726652 -244.052368 237.223297
v  -38.093662 -245.895386 244.772324
v  -40.590183 -248.526352 254.847183
v  -37.547276 -251.240311 264.748322
v  -29.780279 -253.310074 271.822723
v  -19.370361 -254.181030 274.174835
v  -9.106845 -253.619812 271.174377
v  -1.739834 -251.776810 263.625366
v  0.756689 -249.145828 253.550507
v  -2.286217 -246.431870 243.649368
v  -10.053204 -244.362122 236.574951
v  -20.463121 -243.491150 234.222839
v  -19.916748 -248.836090 254.198837
# 26 vertices

vt  0.419114 0.000000 0.500000
vt  0.362964 -0.209557 0.500000
vt  0.209557 -0.362963 0.500000
vt  -0.000000 -0.419114 0.500000
vt  -0.209557 -0.362963 0.500000
vt  -0.362964 -0.209557 0.500000
vt  -0.419114 0.000001 0.500000
vt  -0.362964 0.209558 0.500000
vt  -0.209557 0.362964 0.500000
vt  -0.000000 0.419115 0.500000
vt  0.209557 0.362964 0.500000
vt  0.362964 0.209558 0.500000
vt  0.000000 0.000001 0.500000
vt  0.419114 0.000000 0.500000
vt  0.362964 -0.209557 0.500000
vt  0.209557 -0.362963 0.500000
vt  -0.000000 -0.419114 0.500000
vt  -0.209557 -0.362963 0.500000
vt  -0.362964 -0.209557 0.500000
vt  -0.419114 0.000001 0.500000
vt  -0.362964 0.209558 0.500000
vt  -0.209557 0.362964 0.500000
vt  -0.000000 0.419115 0.500000
vt  0.209557 0.362964 0.500000
vt  0.362964 0.209558 0.500000
vt  0.000000 0.000001 0.500000
# 26 texture vertices

vn  0.027578 1.180869 0.315208
vn  0.027578 1.180869 0.315208
vn  0.027578 1.180869 0.315208
vn  0.027578 1.180869 0.315208
vn  0.027578 1.180869 0.315208
vn  0.027578 1.180869 0.315208
vn  0.027578 1.180869 0.315208
vn  0.027578 1.180869 0.315208
vn  0.027578 1.180869 0.315208
vn  0.027578 1.180869 0.315208
vn  0.027578 1.180869 0.315208
vn  0.027578 1.180869 0.315208
vn  0.027578 1.180869 0.315208
vn  0.027578 1.180869 0.315208
vn  0.027578 1.180869 0.315208
vn  0.027578 1.180869 0.315208
vn  0.027578 1.180869 0.315208
vn  0.027578 1.180869 0.315208
vn  0.027578 1.180869 0.315208
vn  0.027578 1.180869 0.315208
vn  0.027578 1.180869 0.315208
vn  0.027578 1.180869 0.315208
vn  0.027578 1.180869 0.315208
vn  0.027578 1.180869 0.315208
vn  0.027578 1.180869 0.315208
vn  0.027578 1.180869 0.315208
# 26 vertex normals

g radioSpindles
f 13/13/13 1/1/1 2/2/2
f 13/13/13 2/2/2 3/3/3
f 13/13/13 3/3/3 4/4/4
f 13/13/13 4/4/4 5/5/5
f 13/13/13 5/5/5 6/6/6
f 13/13/13 6/6/6 7/7/7
f 13/13/13 7/7/7 8/8/8
f 13/13/13 8/8/8 9/9/9
f 13/13/13 9/9/9 10/10/10
f 13/13/13 10/10/10 11/11/11
f 13/13/13 11/11/11 12/12/12
f 13/13/13 12/12/12 1/1/1
f 26/26/26 14/14/14 15/15/15
f 26/26/26 15/15/15 16/16/16
f 26/26/26 16/16/16 17/17/17
f 26/26/26 17/17/17 18/18/18
f 26/26/26 18/18/18 19/19/19
f 26/26/26 19/19/19 20/20/20
f 26/26/26 20/20/20 21/21/21
f 26/26/26 21/21/21 22/22/22
f 26/26/26 22/22/22 23/23/23
f 26/26/26 23/23/23 24/24/24
f 26/26/26 24/24/24 25/25/25
f 26/26/26 25/25/25 14/14/14
# 24 faces

g
# object radioSpindles to come ...
#
v  -39.453247 -245.394073 256.651154
v  -43.084824 -242.717117 246.940170
v  -51.265003 -240.757462 240.314331
v  -61.801918 -240.040161 238.549011
v  -71.872208 -240.757462 242.117233
v  -78.777542 -242.717117 250.062881
v  -80.667656 -245.394073 260.256927
v  -77.036087 -248.071030 269.967896
v  -68.855911 -250.030701 276.593750
v  -58.318996 -250.747986 278.359070
v  -48.248711 -250.030701 274.790863
v  -41.343365 -248.071045 266.845215
v  -60.060452 -245.394073 258.454041
v  -39.532570 -248.790588 255.744522
v  -43.164143 -246.113632 246.033539
v  -51.344322 -244.153961 239.407700
v  -61.881237 -243.436676 237.642380
v  -71.951523 -244.153961 241.210602
v  -78.856865 -246.113632 249.156250
v  -80.746979 -248.790588 259.350311
v  -77.115402 -251.467545 269.061279
v  -68.935226 -253.427216 275.687134
v  -58.398315 -254.144501 277.452454
v  -48.328030 -253.427216 273.884216
v  -41.422684 -251.467545 265.938599
v  -60.139771 -248.790588 257.547424
# 26 vertices

vt  0.419114 0.000000 0.500000
vt  0.362964 -0.209557 0.500000
vt  0.209557 -0.362963 0.500000
vt  -0.000000 -0.419114 0.500000
vt  -0.209557 -0.362963 0.500000
vt  -0.362964 -0.209557 0.500000
vt  -0.419114 0.000001 0.500000
vt  -0.362964 0.209558 0.500000
vt  -0.209557 0.362964 0.500000
vt  -0.000000 0.419115 0.500000
vt  0.209557 0.362964 0.500000
vt  0.362964 0.209558 0.500000
vt  0.000000 0.000001 0.500000
vt  0.419114 0.000000 0.500000
vt  0.362964 -0.209557 0.500000
vt  0.209557 -0.362963 0.500000
vt  -0.000000 -0.419114 0.500000
vt  -0.209557 -0.362963 0.500000
vt  -0.362964 -0.209557 0.500000
vt  -0.419114 0.000001 0.500000
vt  -0.362964 0.209558 0.500000
vt  -0.209557 0.362964 0.500000
vt  -0.000000 0.419115 0.500000
vt  0.209557 0.362964 0.500000
vt  0.362964 0.209558 0.500000
vt  0.000000 0.000001 0.500000
# 26 texture vertices

vn  0.027577 1.180869 0.315209
vn  0.027577 1.180869 0.315209
vn  0.027577 1.180869 0.315209
vn  0.027577 1.180869 0.315209
vn  0.027577 1.180869 0.315209
vn  0.027577 1.180869 0.315209
vn  0.027577 1.180869 0.315209
vn  0.027577 1.180869 0.315209
vn  0.027577 1.180869 0.315209
vn  0.027577 1.180869 0.315209
vn  0.027577 1.180869 0.315209
vn  0.027577 1.180869 0.315209
vn  0.027577 1.180869 0.315209
vn  0.027577 1.180869 0.315209
vn  0.027577 1.180869 0.315209
vn  0.027577 1.180869 0.315209
vn  0.027577 1.180869 0.315209
vn  0.027577 1.180869 0.315209
vn  0.027577 1.180869 0.315209
vn  0.027577 1.180869 0.315209
vn  0.027577 1.180869 0.315209
vn  0.027577 1.180869 0.315209
vn  0.027577 1.180869 0.315209
vn  0.027577 1.180869 0.315209
vn  0.027577 1.180869 0.315209
vn  0.027577 1.180869 0.315209
# 26 vertex normals

g radioSpindles
f 39/39/39 27/27/27 28/28/28
f 39/39/39 28/28/28 29/29/29
f 39/39/39 29/29/29 30/30/30
f 39/39/39 30/30/30 31/31/31
f 39/39/39 31/31/31 32/32/32
f 39/39/39 32/32/32 33/33/33
f 39/39/39 33/33/33 34/34/34
f 39/39/39 34/34/34 35/35/35
f 39/39/39 35/35/35 36/36/36
f 39/39/39 36/36/36 37/37/37
f 39/39/39 37/37/37 38/38/38
f 39/39/39 38/38/38 27/27/27
f 52/52/52 40/40/40 41/41/41
f 52/52/52 41/41/41 42/42/42
f 52/52/52 42/42/42 43/43/43
f 52/52/52 43/43/43 44/44/44
f 52/52/52 44/44/44 45/45/45
f 52/52/52 45/45/45 46/46/46
f 52/52/52 46/46/46 47/47/47
f 52/52/52 47/47/47 48/48/48
f 52/52/52 48/48/48 49/49/49
f 52/52/52 49/49/49 50/50/50
f 52/52/52 50/50/50 51/51/51
f 52/52/52 51/51/51 40/40/40
# 24 faces

g
